<svg xmlns="http://www.w3.org/2000/svg" width="7.947" height="12.666" viewBox="0 0 7.947 12.666">
    <defs>
        <style>.a{fill:rgba(37,48,70,0.3);}</style>
    </defs>
    <g transform="translate(-1.913 -2.687)">
        <path class="a"
              d="M29.724,0,27.818,0c-2.141,0-3.525,1.224-3.525,3.117V4.554H22.377a.281.281,0,0,0-.3.258V6.9a.281.281,0,0,0,.3.258h1.916v5.255a.281.281,0,0,0,.3.258h2.5a.281.281,0,0,0,.3-.258V7.154h2.241a.281.281,0,0,0,.3-.258V4.813a.242.242,0,0,0-.088-.183.326.326,0,0,0-.212-.076H27.393V3.336c0-.586.162-.883,1.047-.883h1.284a.281.281,0,0,0,.3-.258V.261A.281.281,0,0,0,29.724,0Z"
              transform="translate(-20.164 2.687)"/>
    </g>
</svg>