<svg xmlns="http://www.w3.org/2000/svg" width="14.115" height="14.115" viewBox="0 0 14.115 14.115">
    <defs>
        <style>.a{fill:#bbb;}</style>
    </defs>
    <g transform="translate(0 0)">
        <path class="a"
              d="M9.7,0H4.411A4.411,4.411,0,0,0,0,4.411V9.7a4.411,4.411,0,0,0,4.411,4.411H9.7A4.411,4.411,0,0,0,14.115,9.7V4.411A4.411,4.411,0,0,0,9.7,0Zm3.088,9.7A3.091,3.091,0,0,1,9.7,12.792H4.411A3.091,3.091,0,0,1,1.323,9.7V4.411A3.091,3.091,0,0,1,4.411,1.323H9.7a3.091,3.091,0,0,1,3.088,3.088Z"
              transform="translate(0 0)"/>
    </g>
    <g transform="translate(3.529 3.529)">
        <path class="a"
              d="M131.529,128a3.529,3.529,0,1,0,3.529,3.529A3.529,3.529,0,0,0,131.529,128Zm0,5.734a2.205,2.205,0,1,1,2.205-2.205A2.209,2.209,0,0,1,131.529,133.734Z"
              transform="translate(-128 -128)"/>
    </g>
    <g transform="translate(10.381 2.794)">
        <circle class="a" cx="0.47" cy="0.47" r="0.47"/>
    </g>
</svg>