<svg xmlns="http://www.w3.org/2000/svg" width="12.985" height="11.351" viewBox="0 0 12.985 11.351">
    <defs>
        <style>.a{fill:rgba(37,48,70,0.3);}</style>
    </defs>
    <g transform="translate(-5.3 -4.633)">
        <path class="a"
              d="M12.986,49.3a5.038,5.038,0,0,1-1.53.451,2.847,2.847,0,0,0,1.171-1.585,5.112,5.112,0,0,1-1.692.7,2.577,2.577,0,0,0-1.945-.9,2.77,2.77,0,0,0-2.664,2.865,3.084,3.084,0,0,0,.069.653A7.4,7.4,0,0,1,.905,48.48a3.019,3.019,0,0,0-.361,1.441,2.927,2.927,0,0,0,1.185,2.385,2.513,2.513,0,0,1-1.207-.358c0,.012,0,.024,0,.036a2.823,2.823,0,0,0,2.137,2.81,2.485,2.485,0,0,1-1.2.049,2.7,2.7,0,0,0,2.489,1.99A5.112,5.112,0,0,1,.637,58.059,5.018,5.018,0,0,1,0,58.019a7.161,7.161,0,0,0,4.084,1.288c4.9,0,7.58-4.366,7.58-8.153q0-.186-.008-.371A5.657,5.657,0,0,0,12.986,49.3Z"
              transform="translate(5.299 -43.323)"/>
    </g>
</svg>