<svg xmlns="http://www.w3.org/2000/svg" width="15.126" height="18" viewBox="0 0 15.126 18">
    <defs>
        <style>.a{fill:#fafafa;}</style>
    </defs>
    <path class="a"
          d="M16.646,41.512A3.752,3.752,0,0,1,18.656,38.1a4.318,4.318,0,0,0-3.4-1.792c-1.427-.113-2.986.832-3.556.832-.6,0-1.985-.792-3.07-.792C6.383,36.388,4,38.14,4,41.7a10.016,10.016,0,0,0,.579,3.263C5.093,46.443,6.95,50.06,8.887,50c1.013-.024,1.728-.719,3.046-.719,1.278,0,1.941.719,3.07.719,1.953-.028,3.633-3.315,4.123-4.794a3.984,3.984,0,0,1-2.479-3.693Zm-2.275-6.6A3.785,3.785,0,0,0,15.336,32a4.261,4.261,0,0,0-2.729,1.4,3.844,3.844,0,0,0-1.029,2.889A3.375,3.375,0,0,0,14.372,34.913Z"
          transform="translate(-4 -32)"/>
</svg>