<svg xmlns="http://www.w3.org/2000/svg" width="15.331" height="18" viewBox="0 0 15.331 18">
    <defs>
        <style>.a{fill:#fafafa;}</style>
    </defs>
    <path class="a"
          d="M.958,48.714c0,.711.428,1.286.958,1.286h11.5c.53,0,.958-.575.958-1.286V37.143H.958ZM5.749,40.2c0-.265.162-.482.359-.482H9.222c.2,0,.359.217.359.482v.321c0,.265-.162.482-.359.482H6.108c-.2,0-.359-.217-.359-.482ZM14.373,32H.958C.428,32,0,32.575,0,33.286v1.929c0,.354.216.643.479.643H14.852c.263,0,.479-.289.479-.643V33.286C15.331,32.575,14.9,32,14.373,32Z"
          transform="translate(0 -32)"/>
</svg>
