<svg xmlns="http://www.w3.org/2000/svg" width="19.125" height="18" viewBox="0 0 19.125 18">
    <defs>
        <style>.a{fill:#fafafa;}</style>
    </defs>
    <path class="a"
          d="M18.553,10.129H10.211l5.556,5.556a.564.564,0,0,0,.78.024,8.42,8.42,0,0,0,2.571-4.952.564.564,0,0,0-.565-.628ZM18,7.851A8.458,8.458,0,0,0,10.151.005a.566.566,0,0,0-.591.57V8.441h7.867A.565.565,0,0,0,18,7.851ZM7.873,10.129V1.786a.563.563,0,0,0-.627-.565A8.431,8.431,0,0,0,0,9.861,8.542,8.542,0,0,0,8.542,18,8.372,8.372,0,0,0,13.3,16.455a.559.559,0,0,0,.055-.847Z"
          transform="translate(0.002 -0.004)"/>
</svg>