<svg xmlns="http://www.w3.org/2000/svg" width="22.806" height="42.875" viewBox="0 0 22.806 42.875">
    <defs>
        <style>.a{fill:#a6afba;}</style>
    </defs>
    <g transform="translate(0 0)">
        <path class="a"
              d="M19.535.013a5.214,5.214,0,0,0-2.1.547,7.9,7.9,0,0,0-2.373,1.78A20.668,20.668,0,0,0,12.2,6.271a12.457,12.457,0,0,1,3.6-.313,14.58,14.58,0,0,1,1.488-1.9c1.627-1.668,2.956-1.806,3.63.991a15.115,15.115,0,0,1,.37,2.564,12.752,12.752,0,0,1,2.946,2.318,21.676,21.676,0,0,0-.555-5.241,8.123,8.123,0,0,0-1.184-2.751A4.375,4.375,0,0,0,20.263.107a2.729,2.729,0,0,0-.728-.094ZM15.422,7.486c-.28-.009-.558-.009-.835,0A11.169,11.169,0,0,0,9.053,9.24a10.021,10.021,0,0,0-1.787,1.513C4.777,13.4,1.795,19.07,5.543,25.227a7.372,7.372,0,0,0,.947,1.248,11.189,11.189,0,0,0,19.443-4.523A11.536,11.536,0,0,0,17.954,7.876a11.084,11.084,0,0,0-2.532-.387ZM4.515,26.379a24.674,24.674,0,0,0-.978,7.045c.128,1.577.751,1.748,1.636.447A19.781,19.781,0,0,0,7.19,29.278,12.962,12.962,0,0,1,4.515,26.379Zm15.993,4.366a12.642,12.642,0,0,1-3.741,1.146A19.95,19.95,0,0,0,16.26,36.9c.128,1.577.752,1.747,1.636.446a24.489,24.489,0,0,0,2.612-6.6ZM10.123,31A55.479,55.479,0,0,0,8.368,40.98c-.082,2.373.542,2.543,1.636.445a55.251,55.251,0,0,0,3.377-9.534,12.612,12.612,0,0,1-1.662-.321,12.61,12.61,0,0,1-1.6-.568Z"
              transform="translate(-3.513 -0.013)"/>
    </g>
</svg>