<svg xmlns="http://www.w3.org/2000/svg" width="27.74" height="36.987" viewBox="0 0 27.74 36.987">
    <defs>
        <style>.a{fill:#fafafa;}</style>
    </defs>
    <path class="a"
          d="M27.74,8.809v.438H18.494V0h.438a1.734,1.734,0,0,1,1.226.508l7.075,7.075A1.734,1.734,0,0,1,27.74,8.809Zm-9.825,2.749a1.739,1.739,0,0,1-1.734-1.734V0H1.734A1.734,1.734,0,0,0,0,1.734v33.52a1.734,1.734,0,0,0,1.734,1.734H26.007a1.734,1.734,0,0,0,1.734-1.734V11.558ZM8.9,28.933a.39.39,0,0,1-.551.018L3.663,24.557a.39.39,0,0,1,0-.569L8.349,19.6a.39.39,0,0,1,.551.018l1.414,1.509a.39.39,0,0,1-.027.56L7.343,24.273l2.945,2.592a.39.39,0,0,1,.027.56L8.9,28.933Zm3.706,3.647L10.623,32a.39.39,0,0,1-.266-.483L14.8,16.232a.39.39,0,0,1,.483-.266l1.983.576a.39.39,0,0,1,.266.483L13.089,32.313a.39.39,0,0,1-.483.266Zm11.616-8.022L19.536,28.95a.39.39,0,0,1-.551-.018L17.57,27.424a.39.39,0,0,1,.027-.56l2.945-2.591L17.6,21.681a.39.39,0,0,1-.027-.56l1.414-1.509a.39.39,0,0,1,.551-.018l4.686,4.393a.39.39,0,0,1,0,.569Z"/>
</svg>