<svg xmlns="http://www.w3.org/2000/svg" width="21.777" height="16.333" viewBox="0 0 21.777 16.333">
    <defs>
        <style>.a{fill:#253046;}</style>
    </defs>
    <path class="a"
          d="M19.736,66.722H11.569L8.847,64H2.042A2.042,2.042,0,0,0,0,66.042v12.25a2.042,2.042,0,0,0,2.042,2.042H19.736a2.042,2.042,0,0,0,2.042-2.042V68.764A2.042,2.042,0,0,0,19.736,66.722Zm-4.445,7.146a.681.681,0,0,1-.681.681H11.888v2.722a.681.681,0,0,1-.681.681h-.681a.681.681,0,0,1-.681-.681V74.548H7.124a.681.681,0,0,1-.681-.681v-.681a.681.681,0,0,1,.681-.681H9.847V69.785a.681.681,0,0,1,.681-.681h.681a.681.681,0,0,1,.681.681v2.722H14.61a.681.681,0,0,1,.681.681Z"
          transform="translate(0 -64)"/>
</svg>
