<svg xmlns="http://www.w3.org/2000/svg" width="15.231" height="18" viewBox="0 0 15.231 18"><defs><style>.a{fill:#fafafa;}</style></defs><g transform="translate(-42.545 0.001)"><path class="a" d="M53.233,0a.152.152,0,0,0-.12.086l-.779,1.428a5.426,5.426,0,0,0-4.349,0L47.207.086a.15.15,0,0,0-.216-.065.142.142,0,0,0-.054.216l.768,1.417a4.743,4.743,0,0,0-1.861,1.661,4.194,4.194,0,0,0-.692,2.331H55.158a4.2,4.2,0,0,0-.692-2.331,4.763,4.763,0,0,0-1.85-1.661L53.384.237A.142.142,0,0,0,53.33.021.2.2,0,0,0,53.233,0ZM47.878,3a.422.422,0,0,1,0,.844.387.387,0,0,1-.292-.125.431.431,0,0,1,0-.595A.388.388,0,0,1,47.878,3Zm4.565,0a.389.389,0,0,1,.292.124.431.431,0,0,1,0,.595.388.388,0,0,1-.292.125.422.422,0,0,1,0-.844ZM43.659,5.83a1.075,1.075,0,0,0-.79.324,1.062,1.062,0,0,0-.324.779v4.651A1.108,1.108,0,0,0,43.659,12.7a1.058,1.058,0,0,0,.784-.324,1.084,1.084,0,0,0,.319-.79V6.933a1.108,1.108,0,0,0-1.1-1.1Zm13,0a1.072,1.072,0,0,0-.779.319,1.058,1.058,0,0,0-.324.784v4.651a1.074,1.074,0,0,0,.324.79,1.062,1.062,0,0,0,.779.324,1.108,1.108,0,0,0,1.114-1.114V6.933a1.058,1.058,0,0,0-.324-.784A1.085,1.085,0,0,0,56.661,5.83ZM45.2,6.035v7.2a1.181,1.181,0,0,0,1.19,1.19h.8l.011,2.456a1.075,1.075,0,0,0,.325.79A1.062,1.062,0,0,0,48.3,18a1.108,1.108,0,0,0,1.114-1.114V14.429h1.493v2.456a1.114,1.114,0,1,0,2.228,0V14.429h.811a1.181,1.181,0,0,0,1.179-1.19v-7.2Z" transform="translate(0)"/></g></svg>