<svg xmlns="http://www.w3.org/2000/svg" width="13.036" height="34.763" viewBox="0 0 13.036 34.763">
    <defs>
        <style>.a{fill:#fafafa;}</style>
    </defs>
    <path class="a"
          d="M1.358,28.8H2.716V19H1.358A1.358,1.358,0,0,1,0,17.637V14.394a1.358,1.358,0,0,1,1.358-1.358h7.6a1.358,1.358,0,0,1,1.358,1.358V28.8h1.358a1.358,1.358,0,0,1,1.358,1.358V33.4a1.358,1.358,0,0,1-1.358,1.358H1.358A1.358,1.358,0,0,1,0,33.4V30.161A1.358,1.358,0,0,1,1.358,28.8ZM6.518,0a4.889,4.889,0,1,0,4.889,4.889A4.888,4.888,0,0,0,6.518,0Z"/>
</svg>