<svg xmlns="http://www.w3.org/2000/svg" width="10.582" height="10.582" viewBox="0 0 10.582 10.582">
    <defs>
        <style>.a{fill:#fafafa;}</style>
    </defs>
    <path class="a"
          d="M6.75,3.831a3.14,3.14,0,0,1,.007,4.435l-.007.008L5.361,9.663A3.141,3.141,0,0,1,.918,5.22l.767-.767a.33.33,0,0,1,.564.219,3.808,3.808,0,0,0,.2,1.09.333.333,0,0,1-.078.343l-.27.27A1.488,1.488,0,1,0,4.192,8.494L5.581,7.1a1.488,1.488,0,0,0,0-2.1,1.548,1.548,0,0,0-.214-.177.331.331,0,0,1-.144-.261.823.823,0,0,1,.242-.616L5.9,3.511a.332.332,0,0,1,.425-.036,3.152,3.152,0,0,1,.424.355ZM9.663.918a3.145,3.145,0,0,0-4.443,0L3.831,2.307l-.007.008a3.142,3.142,0,0,0,.432,4.791.332.332,0,0,0,.425-.036l.435-.435a.823.823,0,0,0,.242-.616.331.331,0,0,0-.144-.261A1.548,1.548,0,0,1,5,5.581a1.488,1.488,0,0,1,0-2.1L6.389,2.087A1.488,1.488,0,1,1,8.48,4.205l-.27.27a.333.333,0,0,0-.078.343,3.808,3.808,0,0,1,.2,1.09.33.33,0,0,0,.564.219l.767-.767a3.145,3.145,0,0,0,0-4.443Z"
          transform="translate(0.001 0.001)"/>
</svg>