<svg xmlns="http://www.w3.org/2000/svg" width="17.035" height="27.256" viewBox="0 0 17.035 27.256">
    <defs>
        <style>.a{fill:#fafafa;}</style>
    </defs>
    <path class="a"
          d="M14.48,0H2.555A2.556,2.556,0,0,0,0,2.555V24.7a2.556,2.556,0,0,0,2.555,2.555H14.48A2.556,2.556,0,0,0,17.035,24.7V2.555A2.556,2.556,0,0,0,14.48,0ZM8.518,25.553a1.7,1.7,0,1,1,1.7-1.7A1.7,1.7,0,0,1,8.518,25.553ZM14.48,19.8a.641.641,0,0,1-.639.639H3.194a.641.641,0,0,1-.639-.639V3.194a.641.641,0,0,1,.639-.639H13.841a.641.641,0,0,1,.639.639Z"/>
</svg>