<svg xmlns="http://www.w3.org/2000/svg" width="29.1" height="29.1" viewBox="0 0 29.1 29.1">
    <defs>
        <style>.a{fill:#fafafa;}</style>
    </defs>
    <path class="a"
          d="M27.022,43.432H17.668V34.079A2.079,2.079,0,0,0,15.59,32H13.511a2.079,2.079,0,0,0-2.079,2.079v9.354H2.079A2.079,2.079,0,0,0,0,45.511V47.59a2.079,2.079,0,0,0,2.079,2.079h9.354v9.354A2.079,2.079,0,0,0,13.511,61.1H15.59a2.079,2.079,0,0,0,2.079-2.079V49.668h9.354A2.079,2.079,0,0,0,29.1,47.59V45.511A2.079,2.079,0,0,0,27.022,43.432Z"
          transform="translate(0 -32)"/>
</svg>