<svg xmlns="http://www.w3.org/2000/svg" width="38.5" height="29.48" viewBox="0 0 48 48">
    <defs>
        <style>.a{fill:#fafafa;}</style>
    </defs>
    <path class="a"
          d="M31.281,92.875H24.965a.905.905,0,0,1-.9-.9V88.965a.905.905,0,0,1,.9-.9h6.316a2.4,2.4,0,0,0,2.406-2.406V71.219a2.4,2.4,0,0,0-2.406-2.406H24.965a.9.9,0,0,1-.9-.9V64.9a.9.9,0,0,1,.9-.9h6.316A7.221,7.221,0,0,1,38.5,71.219V85.656A7.221,7.221,0,0,1,31.281,92.875ZM27.747,77.761,15.114,65.128a1.808,1.808,0,0,0-3.083,1.278v7.219H1.8A1.8,1.8,0,0,0,0,75.43v7.219a1.8,1.8,0,0,0,1.8,1.8H12.031v7.219a1.808,1.808,0,0,0,3.083,1.278L27.747,80.317A1.82,1.82,0,0,0,27.747,77.761Z"
          transform="translate(0 -64)"/>
</svg>