<svg xmlns="http://www.w3.org/2000/svg" width="11.305" height="11.305" viewBox="0 0 11.305 11.305">
    <defs>
        <style>.a{fill:#e36152;}</style>
    </defs>
    <path class="a"
          d="M16.268,10.856a3.83,3.83,0,0,0-6.329,1.859.274.274,0,0,1-.266.209H8.367A.273.273,0,0,1,8.1,12.6a5.653,5.653,0,0,1,9.46-3.035l.814-.814a.547.547,0,0,1,.934.387v3.056a.547.547,0,0,1-.547.547H15.7a.547.547,0,0,1-.387-.934Zm-7.72,3.709H11.6a.547.547,0,0,1,.387.934l-.952.952a3.83,3.83,0,0,0,6.329-1.859.274.274,0,0,1,.266-.209h1.306a.273.273,0,0,1,.269.323,5.653,5.653,0,0,1-9.46,3.035l-.814.814A.547.547,0,0,1,8,18.167V15.111A.547.547,0,0,1,8.547,14.564Z"
          transform="translate(-8 -8)"/>
</svg>
