<svg xmlns="http://www.w3.org/2000/svg" width="30.8" height="30.8" viewBox="0 0 30.8 30.8">
    <defs>
        <style>.a{fill:#fafafa;}</style>
    </defs>
    <path class="a"
          d="M23.4,8A15.4,15.4,0,1,0,38.8,23.4,15.4,15.4,0,0,0,23.4,8Zm7.551,19.443a.746.746,0,0,1,0,1.056l-2.459,2.453a.746.746,0,0,1-1.056,0L23.4,26.878l-4.043,4.074a.746.746,0,0,1-1.056,0l-2.453-2.459a.746.746,0,0,1,0-1.056L19.923,23.4l-4.074-4.043a.746.746,0,0,1,0-1.056l2.459-2.459a.746.746,0,0,1,1.056,0l4.036,4.08,4.043-4.074a.746.746,0,0,1,1.056,0l2.459,2.459a.746.746,0,0,1,0,1.056L26.878,23.4Z"
          transform="translate(-8 -8)"/>
</svg>