<svg xmlns="http://www.w3.org/2000/svg" width="16.086" height="16.086" viewBox="0 0 16.086 16.086">
    <defs>
        <style>.a{fill:#253046;}</style>
    </defs>
    <path class="a"
          d="M9.553,12.752a.377.377,0,0,1,0,.533l-1.4,1.4A4.776,4.776,0,0,1,1.4,7.935l1.4-1.4a.377.377,0,0,1,.533,0L4.577,7.776a.377.377,0,0,1,0,.533l-1.4,1.4a2.262,2.262,0,1,0,3.2,3.2l1.4-1.4a.377.377,0,0,1,.533,0ZM7.776,4.577a.377.377,0,0,0,.533,0l1.4-1.4a2.262,2.262,0,0,1,3.2,3.2l-1.4,1.4a.377.377,0,0,0,0,.533l1.244,1.244a.377.377,0,0,0,.533,0l1.4-1.4A4.776,4.776,0,0,0,7.935,1.4l-1.4,1.4a.377.377,0,0,0,0,.533L7.776,4.577Zm7.378,11.288.711-.711a.754.754,0,0,0,0-1.066L2,.22A.754.754,0,0,0,.931.22L.22.931A.754.754,0,0,0,.22,2L14.087,15.865a.754.754,0,0,0,1.066,0Z"
          transform="translate(0.001 0.001)"/>
</svg>