<svg xmlns="http://www.w3.org/2000/svg" width="40.184" height="28.129" viewBox="0 0 40.184 28.129">
    <defs>
        <style>.a{fill:#fafafa;}</style>
    </defs>
    <path class="a"
          d="M6.028,44.055a4.018,4.018,0,1,0-4.018-4.018A4.022,4.022,0,0,0,6.028,44.055Zm28.129,0a4.018,4.018,0,1,0-4.018-4.018A4.022,4.022,0,0,0,34.157,44.055Zm2.009,2.009H32.147a4.007,4.007,0,0,0-2.832,1.168A9.184,9.184,0,0,1,34.031,54.1h4.144a2.007,2.007,0,0,0,2.009-2.009V50.083A4.022,4.022,0,0,0,36.166,46.064Zm-16.074,0a7.032,7.032,0,1,0-7.032-7.032A7.029,7.029,0,0,0,20.092,46.064Zm4.822,2.009h-.521a9.709,9.709,0,0,1-8.6,0H15.27a7.235,7.235,0,0,0-7.233,7.233v1.808a3.015,3.015,0,0,0,3.014,3.014H29.134a3.015,3.015,0,0,0,3.014-3.014V55.307A7.235,7.235,0,0,0,24.914,48.074Zm-14.046-.841a4.007,4.007,0,0,0-2.832-1.168H4.018A4.022,4.022,0,0,0,0,50.083v2.009A2.007,2.007,0,0,0,2.009,54.1H6.147A9.207,9.207,0,0,1,10.869,47.232Z"
          transform="translate(0 -32)"/>
</svg>