<svg xmlns="http://www.w3.org/2000/svg" width="35.021" height="35.021" viewBox="0 0 35.021 35.021">
    <defs>
        <style>.a{fill:#fafafa;}</style>
    </defs>
    <path class="a"
          d="M31.738,0H9.85A3.284,3.284,0,0,0,6.566,3.283V6.566H3.283A3.284,3.284,0,0,0,0,9.85V31.738a3.284,3.284,0,0,0,3.283,3.283H25.171a3.284,3.284,0,0,0,3.283-3.283V28.454h3.283a3.284,3.284,0,0,0,3.283-3.283V3.283A3.284,3.284,0,0,0,31.738,0ZM25.171,31.738H3.283V17.51H25.171Zm6.566-6.566H28.454V9.85a3.284,3.284,0,0,0-3.283-3.283H9.85V3.283H31.738Z"/>
</svg>