<?xml version="1.0" encoding="iso-8859-1"?>
<!-- Generator: Adobe Illustrator 18.0.0, SVG Export Plug-In . SVG Version: 6.00 Build 0)  -->
<!DOCTYPE svg PUBLIC "-//W3C//DTD SVG 1.1//EN" "http://www.w3.org/Graphics/SVG/1.1/DTD/svg11.dtd">
<svg version="1.1" id="Capa_1" xmlns="http://www.w3.org/2000/svg" xmlns:xlink="http://www.w3.org/1999/xlink" x="0px"
     y="0px"
     viewBox="0 0 60.004 60.004" style="enable-background:new 0 0 60.004 60.004;" xml:space="preserve">
<g>
	<path d="M58.991,44.417l-7.777-1.089l-3.472-6.78c-0.342-0.668-1.438-0.668-1.779,0l-3.472,6.78l-7.777,1.089
		c-0.381,0.054-0.698,0.32-0.814,0.688s-0.012,0.768,0.269,1.031l5.605,5.267l-1.322,7.427c-0.066,0.373,0.084,0.751,0.388,0.978
		c0.305,0.227,0.712,0.262,1.049,0.089l6.965-3.528l6.964,3.528c0.143,0.073,0.298,0.108,0.452,0.108
		c0.211,0,0.421-0.066,0.597-0.197c0.304-0.226,0.454-0.604,0.388-0.978l-1.321-7.427l5.605-5.267
		c0.28-0.264,0.385-0.664,0.269-1.031S59.371,44.471,58.991,44.417z M52.167,50.315c-0.246,0.231-0.359,0.571-0.3,0.903l1.064,5.987
		l-5.628-2.852c-0.285-0.145-0.619-0.145-0.904,0l-5.629,2.852l1.065-5.987c0.06-0.332-0.054-0.672-0.3-0.903l-4.479-4.207
		l6.225-0.872c0.322-0.045,0.603-0.244,0.751-0.534l2.818-5.504l2.818,5.504c0.148,0.29,0.429,0.489,0.751,0.534l6.225,0.872
		L52.167,50.315z"/>
    <path d="M0.838,21c-0.521,0.74-0.835,1.635-0.835,2.608v11.783c0,0.974,0.314,1.868,0.835,2.608h41.01l4.114-8.035
		c0.342-0.668,1.438-0.668,1.779,0L51.856,38h7.311c0.521-0.74,0.835-1.635,0.835-2.608V23.608c0-0.974-0.314-1.868-0.835-2.608
		H0.838z M10.502,34c-2.481,0-4.5-2.019-4.5-4.5s2.019-4.5,4.5-4.5s4.5,2.019,4.5,4.5S12.984,34,10.502,34z M34.002,29
		c-0.552,0-1-0.448-1-1s0.448-1,1-1s1,0.448,1,1S34.555,29,34.002,29z M38.002,29c-0.552,0-1-0.448-1-1s0.448-1,1-1s1,0.448,1,1
		S38.555,29,38.002,29z M42.002,29c-0.552,0-1-0.448-1-1s0.448-1,1-1s1,0.448,1,1S42.555,29,42.002,29z M46.002,29
		c-0.552,0-1-0.448-1-1s0.448-1,1-1s1,0.448,1,1S46.555,29,46.002,29z M50.002,29c-0.552,0-1-0.448-1-1s0.448-1,1-1s1,0.448,1,1
		S50.555,29,50.002,29z"/>
    <path d="M55.394,0H4.611C2.07,0,0.002,2.067,0.002,4.608v11.783c0,0.974,0.314,1.868,0.835,2.608h58.329
		c0.521-0.74,0.835-1.635,0.835-2.608V4.608C60.002,2.067,57.935,0,55.394,0z M10.502,15c-2.481,0-4.5-2.019-4.5-4.5
		S8.021,6,10.502,6s4.5,2.019,4.5,4.5S12.984,15,10.502,15z M34.002,10c-0.552,0-1-0.448-1-1s0.448-1,1-1s1,0.448,1,1
		S34.555,10,34.002,10z M36.002,13c-0.552,0-1-0.448-1-1s0.448-1,1-1s1,0.448,1,1S36.555,13,36.002,13z M38.002,10
		c-0.552,0-1-0.448-1-1s0.448-1,1-1s1,0.448,1,1S38.555,10,38.002,10z M40.002,13c-0.552,0-1-0.448-1-1s0.448-1,1-1s1,0.448,1,1
		S40.555,13,40.002,13z M42.002,10c-0.552,0-1-0.448-1-1s0.448-1,1-1s1,0.448,1,1S42.555,10,42.002,10z M44.002,13
		c-0.552,0-1-0.448-1-1s0.448-1,1-1s1,0.448,1,1S44.555,13,44.002,13z M46.002,10c-0.552,0-1-0.448-1-1s0.448-1,1-1s1,0.448,1,1
		S46.555,10,46.002,10z M48.002,13c-0.552,0-1-0.448-1-1s0.448-1,1-1s1,0.448,1,1S48.555,13,48.002,13z M50.002,10
		c-0.552,0-1-0.448-1-1s0.448-1,1-1s1,0.448,1,1S50.555,10,50.002,10z M52.002,13c-0.552,0-1-0.448-1-1s0.448-1,1-1s1,0.448,1,1
		S52.555,13,52.002,13z"/>
    <path d="M27.28,43.002c0.116-0.367,0.434-0.634,0.814-0.688l12.437-1.741L40.824,40H0.838c-0.521,0.74-0.835,1.635-0.835,2.608
		v11.783C0.002,56.933,2.07,59,4.611,59h30.763l1.161-6.523l-8.986-8.443C27.268,43.77,27.163,43.369,27.28,43.002z M10.502,53
		c-2.481,0-4.5-2.019-4.5-4.5s2.019-4.5,4.5-4.5s4.5,2.019,4.5,4.5S12.984,53,10.502,53z"/>
</g>
</svg>
