<svg xmlns="http://www.w3.org/2000/svg" width="115.169" height="29.103" viewBox="0 0 115.169 29.103">
    <g transform="translate(-2317.475 242.838)">
        <g transform="translate(2317.475 -242.838)">
            <g transform="translate(42.484 5.567)">
                <path d="M199.638,74.024a5.626,5.626,0,0,0-3.785,1.207,3.8,3.8,0,0,0-1.391,2.988,3.3,3.3,0,0,0,.47,1.78,3.649,3.649,0,0,0,1.248,1.167,11.327,11.327,0,0,0,1.7.716q.941.307,1.862.532t1.678.471q1.739.553,1.739,1.719,0,2.374-3.58,2.374a9.779,9.779,0,0,1-4.848-1.186h-.1v1.821a11.328,11.328,0,0,0,4.91,1.105,6.427,6.427,0,0,0,4.009-1.105A3.5,3.5,0,0,0,205,84.727a3.322,3.322,0,0,0-.655-2.108,3.513,3.513,0,0,0-1.6-1.228,21.348,21.348,0,0,0-2.108-.676q-1.125-.327-2.086-.532a3.944,3.944,0,0,1-1.615-.757,1.688,1.688,0,0,1-.635-1.351,1.911,1.911,0,0,1,1.023-1.719,5.25,5.25,0,0,1,2.782-.634,9.86,9.86,0,0,1,3.7.778h.143V74.761A11.985,11.985,0,0,0,199.638,74.024Zm-10.628.205v9.7a3.2,3.2,0,0,1-.7,2.395,2.765,2.765,0,0,1-1.964.634,4.241,4.241,0,0,1-2.537-.921h-.082v1.843a5.725,5.725,0,0,0,3.049.839,4.077,4.077,0,0,0,2.884-1.105,5.034,5.034,0,0,0,1.207-3.807V74.229Zm-56,12.124a16.472,16.472,0,0,0-.676,4.783c.088,1.071.519,1.187,1.131.3a13.307,13.307,0,0,0,1.395-3.118A8.865,8.865,0,0,1,133.005,86.353Zm11.054,2.964a8.855,8.855,0,0,1-2.585.778,13.308,13.308,0,0,0-.351,3.4c.088,1.07.519,1.186,1.131.3A16.452,16.452,0,0,0,144.06,89.317Zm-7.178.174a37.048,37.048,0,0,0-1.213,6.773c-.057,1.611.374,1.727,1.131.3a37.086,37.086,0,0,0,2.334-6.472,7.877,7.877,0,0,1-2.252-.6Z"
                      transform="translate(-132.313 -74.024)" fill="#b6bdc7"/>
            </g>
            <path d="M110.186,69.392q-.284-.01-.565,0a7.578,7.578,0,1,0,.565,0Zm-.063,1.688a6.02,6.02,0,0,1,1.34.2,5.934,5.934,0,1,1-1.781-.2c.146-.006.293-.006.441,0Zm2.912-6.919a3.655,3.655,0,0,0-1.45.371,5.456,5.456,0,0,0-1.64,1.208,14.044,14.044,0,0,0-1.983,2.668,8.765,8.765,0,0,1,2.485-.212,9.927,9.927,0,0,1,1.029-1.291c1.124-1.133,2.043-1.226,2.509.673a10.088,10.088,0,0,1,.255,1.74,8.792,8.792,0,0,1,2.036,1.574,14.438,14.438,0,0,0-.384-3.558,5.459,5.459,0,0,0-.818-1.867,3.013,3.013,0,0,0-1.536-1.243,1.915,1.915,0,0,0-.5-.064Zm-2.844,5.074q-.29-.01-.577,0a7.733,7.733,0,1,0,.577,0Zm-50.716.5V84.218h5.934q5.313,0,5.313-4.068,0-2.532-2.792-3.425v-.062a3.2,3.2,0,0,0,1.985-3.175,3.383,3.383,0,0,0-1.22-2.74,5.126,5.126,0,0,0-3.411-1.017Zm15.5,0V84.218H84.986V82.454H76.861V77.846h7.38V76.082h-7.38V71.5h8.125V69.732Zm12.183,0L93.035,78.1v6.122h1.881V78.1l5.871-8.364H98.493l-4.466,6.62h-.1l-4.466-6.62Zm34.533,0V84.218h1.881V72.283h.041l8.351,11.934h2.316V69.732H132.4V81.645h-.062l-8.332-11.913Zm17.765,0V84.218h5.086a8.162,8.162,0,0,0,2.646-.415,6.508,6.508,0,0,0,3.494-2.78,7.675,7.675,0,0,0-.62-8.966,5.989,5.989,0,0,0-2.316-1.682,7.706,7.706,0,0,0-3.2-.643Zm-29.335,1.227a6.143,6.143,0,0,1,1.368.207,6.056,6.056,0,1,1-1.818-.206c.149-.006.3-.006.45,0Zm-48.77.537H65.14a3.582,3.582,0,0,1,2.17.581,1.9,1.9,0,0,1,.806,1.64,2.055,2.055,0,0,1-.744,1.66A4.091,4.091,0,0,1,64.789,76H61.357Zm79.986,0h2.977a5.634,5.634,0,0,1,4.114,1.515,5.844,5.844,0,0,1,0,7.928,5.634,5.634,0,0,1-4.114,1.516h-2.977ZM61.357,77.7h3.887q3.659,0,3.659,2.366a2.06,2.06,0,0,1-.848,1.764,4.846,4.846,0,0,1-2.832.623H61.357Z"
                  transform="translate(-59.475 -64.162)" fill="#d9684a"/>
        </g>
    </g>
</svg>
