<svg id="Capa_1" data-name="Capa 1" xmlns="http://www.w3.org/2000/svg" viewBox="0 0 70 70">
    <defs>
        <style>.cls-1{fill:#9b9898;}.cls-2{fill:#616161;}.cls-3{fill:#4c4c4c;}</style>
    </defs>
    <path class="cls-1"
          d="M35.84,35.43l31.1-15.55,0-5.11a2.73,2.73,0,0,0-1.29-2.31A2.77,2.77,0,0,0,64.13,12a2.88,2.88,0,0,0-1.17.26L32,26.5a2.79,2.79,0,0,0-1.62,2.55l0,3.75Z"/>
    <path class="cls-2" d="M69.23,52.91V23L37.67,38.8,37.7,70,68.83,53.54A.73.73,0,0,0,69.23,52.91Z"/>
    <path class="cls-3"
          d="M27,30.62l0-2.2A5.9,5.9,0,0,1,30.41,23l22.85-10.5,0-2.84a3.51,3.51,0,0,0-3.47-3.46,3.45,3.45,0,0,0-1.46.33L18.77,20.12a3.5,3.5,0,0,0-2,3.2l0,2.29Z"/>
    <path class="cls-1"
          d="M13.15,24.3v-.75a6.59,6.59,0,0,1,3.83-6L37,8.32l0-2.76A2.77,2.77,0,0,0,33,3.06L5,15.94A2.78,2.78,0,0,0,3.34,18.5v1Z"/>
    <polygon class="cls-2" points="1.67 53.09 34.5 70 34.47 38.41 1.71 22.41 1.67 53.09"/>
</svg>